<svg width="328" height="138" viewBox="0 0 328 138" fill="none" xmlns="http://www.w3.org/2000/svg">
<g clip-path="url(#clip0_16_36)">
<g clip-path="url(#clip1_16_36)">
<path d="M0 0H64V68H0V0Z" fill="#36354B"/>
<path d="M66 0H130V68H66V0Z" fill="#474169"/>
<path d="M132 0H196V68H132V0Z" fill="#594D86"/>
<path d="M198 0H262V68H198V0Z" fill="#6A59A4"/>
<path d="M264 0H328V68H264V0Z" fill="#7C65C1"/>
<path d="M23.8865 85.5429V138H53.2106V85.5429H77V70H0V85.5429H23.8865Z" fill="white"/>
<path fill-rule="evenodd" clip-rule="evenodd" d="M79.334 70V138H140.639C144.088 138 147.374 137.288 150.498 135.863C153.687 134.438 156.29 132.333 158.308 129.549C160.325 126.699 161.334 123.267 161.334 119.251C161.334 114.589 159.935 110.735 157.136 107.691C154.403 104.648 151.051 102.575 147.082 101.474C148.904 101.021 150.759 100.179 152.646 98.9486C154.533 97.7181 156.095 96.0667 157.332 93.9943C158.633 91.9219 159.284 89.461 159.284 86.6114C159.284 83.2438 158.405 80.3295 156.648 77.8686C154.956 75.3429 152.678 73.4 149.815 72.04C146.951 70.68 143.828 70 140.443 70H79.334ZM108.132 83.7943H124.044C125.801 83.7943 127.167 84.28 128.144 85.2514C129.185 86.1581 129.705 87.4533 129.705 89.1371V91.4686C129.705 93.0876 129.185 94.3829 128.144 95.3543C127.167 96.3257 125.801 96.8114 124.044 96.8114H108.132V83.7943ZM108.132 109.44H124.141C126.028 109.44 127.525 109.99 128.632 111.091C129.738 112.128 130.291 113.617 130.291 115.56V118.086C130.291 120.029 129.738 121.55 128.632 122.651C127.525 123.688 126.028 124.206 124.141 124.206H108.132V109.44Z" fill="white"/>
<path fill-rule="evenodd" clip-rule="evenodd" d="M163.666 138V70H224.051C227.941 70 231.442 70.9714 234.553 72.9143C237.665 74.7924 240.128 77.3829 241.943 80.6857C243.758 83.9886 244.666 87.7448 244.666 91.9543C244.666 96.099 243.758 99.8552 241.943 103.223C240.128 106.59 237.665 109.278 234.553 111.286C231.442 113.229 227.941 114.2 224.051 114.2H192.74V138H163.666ZM207.132 84.1829H192.74V99.92H207.132C209.206 99.92 210.827 99.3695 211.994 98.2686C213.161 97.1676 213.744 95.6133 213.744 93.6057V90.5943C213.744 88.5867 213.161 87.0324 211.994 85.9314C210.827 84.7657 209.206 84.1829 207.132 84.1829Z" fill="white"/>
<path d="M247 70V138H266.151V96.2286L293.314 138H328V70H308.751V111.869L281.686 70H247Z" fill="white"/>
</g>
</g>
<defs>
<clipPath id="clip0_16_36">
<rect width="328" height="138" fill="white"/>
</clipPath>
<clipPath id="clip1_16_36">
<rect width="328" height="138" fill="white"/>
</clipPath>
</defs>
</svg>
